 <svg  version="1.0" xmlns="http://www.w3.org/2000/svg"  width="1350.000000pt" height="1350.000000pt" viewBox="0 0 1350.000000 1350.000000"  preserveAspectRatio="xMidYMid meet">  <g transform="translate(0.000000,1350.000000) scale(0.100000,-0.100000)" fill="#b50b0b" stroke="none"> <path d="M7339 10440 c-21 -11 -53 -38 -73 -61 l-35 -42 -93 6 c-51 4 -149 12 -218 18 -227 21 -643 -10 -890 -66 -97 -22 -111 -20 -155 25 -40 41 -106 70 -158 70 -95 0 -193 -75 -216 -165 -19 -75 -29 -95 -47 -95 -9 0 -28 -6 -42 -14 -15 -8 -63 -29 -107 -47 -74 -31 -297 -141 -342 -169 -16 -10 -28 -7 -74 19 -65 36 -148 42 -202 15 -30 -16 -285 -205 -337 -250 -14 -12 -47 -41 -75 -64 -64 -54 -191 -178 -294 -286 -260 -273 -509 -646 -666 -999 -47 -106 -53 -119 -70 -165 -9 -25 -22 -58 -29 -75 -18 -43 -37 -95 -46 -130 -4 -16 -12 -41 -17 -55 -16 -40 -49 -158 -86 -315 -17 -68 -40 -201 -62 -355 -32 -225 -28 -853 7 -993 19 -77 87 -142 180 -171 10 -3 21 -25 29 -63 7 -32 23 -98 36 -148 13 -49 28 -106 32 -125 4 -19 13 -45 19 -57 15 -28 16 -25 -14 -59 -87 -100 -87 -229 2 -318 40 -40 81 -59 138 -66 l50 -5 63 -120 c34 -66 67 -129 73 -140 6 -11 19 -33 30 -50 11 -16 23 -37 27 -45 10 -22 143 -217 185 -271 361 -474 856 -871 1373 -1104 101 -45 138 -61 180 -77 22 -9 58 -23 80 -31 239 -93 647 -185 895 -202 116 -8 124 -11 143 -53 26 -60 82 -109 142 -126 65 -20 65 -20 130 0 59 17 113 64 141 124 9 19 22 38 27 42 6 3 49 9 96 12 234 16 647 104 809 172 18 8 39 14 47 14 8 0 31 7 52 16 72 31 98 42 143 59 61 24 357 171 395 195 17 11 39 24 50 29 11 5 37 21 58 35 21 14 40 26 42 26 8 0 143 96 255 180 181 137 371 316 520 489 30 35 62 71 71 80 53 53 266 359 319 456 6 11 26 47 45 80 18 33 57 108 86 168 l53 107 39 0 c81 0 169 63 207 147 36 82 21 157 -48 236 -30 35 -33 43 -27 80 4 23 13 57 21 76 8 18 14 43 14 54 0 11 6 43 14 71 8 28 23 91 34 141 l18 89 52 21 c63 26 107 66 134 125 20 43 21 63 22 410 1 377 -2 417 -50 690 -27 154 -83 379 -120 483 -8 20 -14 49 -14 63 0 90 -120 194 -224 194 -37 0 -43 4 -58 33 -8 17 -46 93 -83 167 -37 74 -75 149 -86 165 -10 17 -23 39 -29 50 -6 11 -19 34 -30 50 -11 17 -22 35 -26 42 -3 7 9 41 26 77 51 104 36 176 -61 291 -28 33 -75 90 -105 127 -92 114 -315 341 -429 438 -27 23 -61 52 -75 64 -36 32 -268 206 -274 206 -3 0 -33 19 -68 43 -35 24 -70 46 -78 50 -8 4 -28 16 -45 27 -16 11 -39 24 -50 30 -39 21 -63 36 -80 50 -13 11 -43 15 -104 15 -73 0 -92 -4 -123 -24 -21 -12 -38 -27 -38 -32 0 -16 -42 -9 -95 15 -28 14 -69 31 -91 39 -21 8 -77 29 -124 47 -89 33 -107 39 -205 66 -76 20 -80 24 -101 87 -19 59 -62 110 -116 138 -50 26 -150 25 -199 -1z m-200 -203 c37 -7 67 -18 71 -27 5 -8 16 -34 25 -57 31 -75 130 -143 211 -143 37 0 127 46 163 84 39 40 69 45 123 22 18 -8 62 -23 98 -35 36 -11 90 -30 120 -41 30 -12 66 -25 80 -29 14 -5 57 -23 97 -41 76 -35 83 -45 83 -113 0 -66 57 -144 127 -173 95 -40 360 -218 517 -348 185 -154 469 -454 542 -572 50 -81 145 -131 230 -121 39 4 46 2 63 -22 40 -56 88 -143 172 -310 l88 -174 -28 -36 c-58 -75 -73 -161 -41 -245 4 -11 14 -43 23 -71 140 -465 178 -822 141 -1320 -7 -100 14 -155 83 -213 l46 -40 -11 -78 c-18 -121 -64 -310 -88 -356 -11 -22 -22 -28 -47 -28 -54 0 -133 -53 -167 -113 -50 -87 -37 -201 29 -261 12 -11 21 -26 21 -34 0 -16 -107 -235 -141 -287 -10 -16 -23 -39 -28 -50 -5 -11 -21 -37 -35 -58 -14 -21 -26 -40 -26 -42 0 -7 -93 -139 -168 -240 -186 -247 -382 -444 -672 -674 -193 -153 -521 -341 -770 -441 -30 -12 -66 -27 -80 -34 -14 -7 -72 -27 -130 -45 -58 -19 -120 -40 -138 -47 -18 -8 -40 -14 -49 -14 -9 0 -39 -6 -67 -14 -139 -40 -233 -58 -468 -91 -168 -24 -170 -23 -206 34 -17 27 -49 62 -73 78 -37 24 -52 28 -119 28 -67 0 -82 -4 -119 -28 -24 -16 -56 -51 -73 -78 -29 -46 -34 -49 -72 -49 -42 0 -216 22 -321 42 -33 6 -80 14 -105 18 -89 14 -335 80 -398 106 -18 8 -39 14 -47 14 -8 0 -29 6 -47 14 -18 8 -53 22 -78 31 -25 10 -61 24 -80 33 -19 8 -48 21 -65 28 -57 24 -240 116 -300 150 -33 19 -69 39 -80 45 -50 25 -242 154 -316 211 -193 148 -425 365 -537 501 -31 39 -64 78 -73 87 -37 39 -197 259 -234 322 -5 9 -29 48 -51 85 -83 137 -154 271 -154 293 0 9 10 25 21 36 32 28 69 113 69 159 0 22 -10 60 -21 85 -38 85 -98 128 -193 139 l-49 6 -18 55 c-42 131 -79 278 -79 317 0 25 7 35 34 51 19 12 48 40 63 64 27 41 28 48 26 153 -1 61 -6 157 -12 214 -34 323 11 762 116 1131 40 143 71 233 117 345 38 92 167 354 196 400 11 17 23 37 27 45 3 8 18 33 32 55 14 22 30 48 36 57 29 50 129 190 167 234 24 28 71 85 105 125 165 198 472 472 644 577 89 54 129 121 129 214 0 55 3 65 23 78 45 29 255 132 337 167 47 19 97 41 112 49 37 20 51 18 79 -12 49 -52 88 -68 165 -68 61 0 77 4 113 27 52 35 101 101 101 139 0 37 30 66 77 73 21 3 72 12 113 20 147 27 237 39 360 46 164 9 578 0 659 -14z"/> <path d="M7203 9662 c-86 -35 -153 -131 -153 -216 0 -71 47 -151 111 -192 32 -20 51 -24 117 -24 73 0 82 2 126 34 55 39 78 73 92 136 24 110 -36 220 -141 259 -67 25 -96 26 -152 3z m129 -88 c54 -26 73 -60 73 -131 0 -51 -4 -66 -24 -87 -14 -15 -42 -31 -64 -37 -164 -44 -248 172 -97 252 42 23 69 24 112 3z"/> <path d="M5845 9590 c-72 -23 -155 -132 -155 -204 0 -55 33 -129 76 -171 104 -101 271 -79 350 46 20 32 24 51 24 114 0 87 -21 130 -89 184 -34 27 -50 33 -108 36 -37 3 -81 0 -98 -5z m132 -90 c46 -17 76 -64 77 -124 2 -142 -179 -187 -254 -64 -24 40 -25 79 -4 121 35 67 106 93 181 67z"/> <path d="M7861 9438 c-35 -76 -138 -318 -143 -336 -2 -6 11 -21 28 -32 l32 -21 21 27 c12 15 21 32 21 40 0 7 6 25 14 41 8 15 21 44 29 63 8 19 23 53 33 75 9 22 24 56 32 75 8 19 19 43 23 52 15 30 10 43 -20 61 -16 9 -32 17 -35 17 -3 0 -19 -28 -35 -62z"/> <path d="M5255 9330 c-16 -17 -17 -24 -7 -38 7 -9 15 -24 19 -32 4 -8 19 -35 33 -61 15 -25 38 -65 52 -90 109 -194 105 -189 147 -158 l30 22 -30 56 c-17 31 -39 70 -49 86 -11 17 -26 44 -34 60 -8 17 -33 62 -55 100 -44 78 -72 93 -106 55z"/> <path d="M8276 9206 c-131 -41 -194 -192 -131 -316 30 -60 76 -96 147 -116 49 -14 60 -14 108 0 70 21 115 57 145 116 50 98 26 206 -59 273 -69 55 -130 68 -210 43z m127 -92 c79 -38 102 -139 48 -205 -58 -70 -145 -71 -208 -1 -97 106 29 268 160 206z"/> <path d="M4838 9024 c-14 -3 -51 -29 -81 -57 -45 -43 -58 -62 -70 -109 -14 -52 -14 -63 0 -112 22 -77 84 -138 164 -161 56 -15 63 -15 112 1 64 21 109 54 138 102 31 51 34 182 4 227 -48 75 -97 105 -178 110 -34 2 -74 1 -89 -1z m125 -98 c56 -23 72 -50 72 -121 0 -75 -21 -104 -91 -131 -42 -16 -45 -16 -91 7 -29 14 -55 37 -66 57 -66 114 53 241 176 188z"/> <path d="M8868 8737 c-26 -23 -97 -87 -157 -141 -61 -55 -111 -107 -111 -116 0 -9 11 -26 24 -39 l23 -22 69 62 c38 34 105 94 148 133 104 93 106 95 106 110 0 11 -40 56 -51 56 -2 0 -25 -19 -51 -43z"/> <path d="M4321 8419 c-73 -22 -151 -133 -151 -214 0 -93 75 -188 172 -219 54 -17 59 -17 114 1 79 24 136 82 158 157 15 50 15 62 2 110 -27 107 -96 166 -200 172 -34 2 -76 -1 -95 -7z m166 -111 c84 -78 52 -200 -62 -238 -71 -23 -163 50 -165 132 0 52 35 108 82 128 37 16 118 4 145 -22z"/> <path d="M9043 8339 c-81 -37 -143 -131 -143 -215 0 -38 31 -110 60 -142 49 -52 96 -72 169 -72 88 0 149 31 192 99 25 40 29 56 29 122 0 70 -3 80 -32 120 -38 53 -50 63 -107 89 -54 25 -113 24 -168 -1z m165 -99 c72 -52 78 -143 15 -206 -31 -31 -39 -34 -92 -34 -62 0 -87 14 -123 68 -37 56 -12 138 55 181 46 30 96 27 145 -9z"/> <path d="M3930 7770 c-6 -11 -10 -30 -8 -42 3 -19 15 -26 108 -58 14 -5 50 -18 80 -30 30 -12 69 -25 85 -30 17 -5 54 -17 83 -28 l53 -21 17 36 c16 33 16 36 -3 49 -10 8 -33 18 -50 23 -16 5 -55 19 -85 31 -30 12 -68 25 -85 30 -16 5 -55 18 -85 30 -85 34 -97 35 -110 10z"/> <path d="M9345 7614 c-146 -53 -191 -239 -88 -360 46 -53 84 -69 168 -69 72 0 84 3 124 30 66 44 99 105 100 183 2 165 -150 272 -304 216z m145 -89 c46 -24 70 -66 70 -122 0 -42 -5 -56 -34 -89 -33 -38 -35 -39 -101 -39 -66 0 -68 1 -101 40 -27 32 -34 48 -34 85 0 103 110 172 200 125z"/> <path d="M3925 7318 c-82 -29 -155 -132 -155 -217 0 -54 45 -135 98 -179 44 -36 47 -37 131 -37 84 0 88 1 130 34 71 56 91 98 91 186 0 63 -4 82 -25 114 -57 92 -172 134 -270 99z m133 -92 c55 -29 74 -59 74 -121 1 -53 -2 -60 -36 -94 -33 -33 -41 -36 -94 -36 -66 0 -101 20 -126 73 -21 44 -20 80 4 120 39 64 118 89 178 58z"/> <path d="M5352 6950 c-64 -39 -72 -66 -72 -241 0 -138 2 -158 18 -172 44 -40 82 -5 82 72 0 88 4 91 126 91 151 0 287 -18 352 -47 30 -13 80 -48 112 -78 60 -58 79 -65 105 -39 24 25 11 62 -42 116 -96 98 -219 134 -486 143 -81 2 -152 7 -157 10 -14 9 -12 39 2 53 13 13 564 18 584 4 6 -4 14 -18 17 -32 3 -14 16 -31 27 -38 18 -11 26 -11 47 3 22 15 25 22 20 57 -3 22 -16 51 -29 65 -47 50 -68 53 -382 53 -273 0 -293 -1 -324 -20z"/> <path d="M6455 6958 c-75 -26 -135 -121 -135 -214 0 -115 63 -204 158 -223 74 -15 588 -15 631 0 47 16 58 45 30 75 l-22 24 -320 0 -319 0 -29 31 c-51 54 -51 124 0 182 l29 32 320 3 c303 3 320 4 341 23 26 25 26 33 -1 59 -21 19 -33 20 -337 19 -192 0 -328 -5 -346 -11z"/> <path d="M7418 6959 c-16 -9 -18 -30 -18 -215 l0 -204 24 -11 c17 -8 29 -8 45 0 18 10 21 21 21 80 0 44 5 72 13 79 9 7 119 12 321 14 l308 3 34 39 c42 48 51 93 29 135 -22 44 -46 66 -85 79 -43 15 -667 16 -692 1z m673 -99 c20 -11 26 -45 10 -55 -7 -4 -508 -9 -598 -5 -13 0 -18 52 -6 63 11 12 572 8 594 -3z"/> <path d="M9422 6833 c-13 -3 -47 -28 -76 -57 -44 -45 -53 -61 -62 -107 -14 -80 1 -138 54 -199 58 -67 125 -88 214 -69 50 10 68 20 107 59 62 62 81 131 61 216 -17 69 -77 137 -136 153 -38 11 -117 13 -162 4z m146 -95 c61 -30 89 -116 57 -178 -45 -87 -152 -103 -225 -32 -22 21 -25 33 -25 93 0 59 3 71 24 91 49 46 108 55 169 26z"/> <path d="M6529 6787 c-31 -16 -39 -71 -12 -81 20 -8 559 -10 572 -2 18 12 19 47 1 69 -18 22 -22 22 -277 24 -185 1 -266 -2 -284 -10z"/> <path d="M4040 6575 c-63 -8 -146 -14 -185 -14 -86 -2 -97 -8 -93 -52 l3 -34 70 -3 c39 -2 104 1 145 7 41 6 110 13 153 17 l77 6 0 32 c0 35 -16 57 -39 55 -9 -1 -68 -7 -131 -14z"/> <path d="M3970 6138 c-51 -35 -68 -56 -92 -113 -23 -54 -22 -103 2 -158 68 -153 248 -193 365 -81 51 49 65 85 65 167 0 66 -3 78 -30 115 -17 23 -49 55 -72 72 -37 27 -48 30 -117 30 -68 -1 -80 -4 -121 -32z m215 -93 c32 -33 35 -41 35 -93 0 -65 -13 -90 -64 -121 -42 -27 -89 -27 -132 0 -67 41 -93 125 -56 180 34 52 63 68 124 69 52 0 60 -3 93 -35z"/> <path d="M9335 6073 c-39 -8 -100 -35 -119 -51 -10 -10 -32 -35 -47 -56 -26 -35 -29 -46 -29 -120 1 -72 4 -86 28 -121 15 -22 47 -53 70 -70 39 -27 51 -30 120 -29 66 0 83 4 118 26 47 30 73 64 97 126 22 56 21 79 -5 147 -31 83 -90 127 -198 149 -8 2 -24 2 -35 -1z m75 -103 c48 -24 90 -83 90 -126 0 -39 -51 -111 -88 -125 -49 -19 -111 -5 -150 35 -33 32 -36 41 -36 89 0 63 25 103 82 129 47 22 55 22 102 -2z"/> <path d="M4730 5047 c-25 -23 -93 -84 -152 -135 -59 -51 -110 -97 -113 -102 -3 -5 5 -22 19 -37 23 -25 26 -25 49 -10 25 16 153 126 279 238 l41 36 -19 26 c-27 37 -52 33 -104 -16z"/> <path d="M8590 4982 c-81 -39 -140 -126 -140 -208 0 -80 58 -168 137 -208 45 -23 144 -21 191 3 39 20 77 57 105 103 24 38 23 159 0 201 -60 108 -192 157 -293 109z m178 -108 c41 -35 42 -37 42 -98 0 -59 -2 -65 -37 -99 -33 -34 -41 -37 -91 -37 -39 0 -61 6 -80 21 -82 64 -82 155 -2 223 24 20 42 26 79 26 40 0 54 -6 89 -36z"/> <path d="M5016 4736 c-88 -27 -156 -121 -156 -215 0 -66 22 -114 76 -166 35 -34 55 -45 90 -51 110 -16 199 18 251 98 24 36 28 51 28 117 0 87 -20 130 -83 179 -63 48 -131 61 -206 38z m122 -89 c53 -22 77 -63 77 -129 -1 -49 -5 -62 -28 -86 -74 -77 -177 -59 -228 40 -23 46 -23 51 -2 96 38 80 107 110 181 79z"/> <path d="M8098 4592 c-16 -10 -28 -21 -28 -26 0 -13 55 -104 128 -214 23 -35 42 -65 42 -67 0 -13 64 -95 74 -95 7 0 23 11 35 24 l23 24 -29 47 c-15 25 -33 54 -38 63 -6 9 -28 44 -49 77 -21 33 -57 88 -79 123 -22 34 -43 62 -46 61 -3 0 -18 -8 -33 -17z"/> <path d="M5606 4367 c-18 -40 -45 -97 -59 -127 -14 -30 -39 -85 -56 -122 -17 -37 -28 -74 -25 -82 3 -8 19 -19 34 -25 27 -9 31 -7 50 23 11 19 20 36 20 39 0 4 16 40 35 82 19 41 51 109 70 150 29 63 44 115 32 115 -1 0 -17 4 -34 9 l-33 9 -34 -71z"/> <path d="M7595 4348 c-66 -34 -111 -97 -132 -185 -7 -31 25 -122 59 -165 57 -73 185 -101 266 -58 91 48 126 106 126 205 0 77 -17 117 -71 165 -72 65 -169 80 -248 38z m188 -104 c62 -63 60 -145 -5 -205 -27 -24 -41 -29 -84 -29 -61 0 -94 22 -124 81 -25 48 -25 60 0 108 29 57 65 80 126 81 45 0 55 -4 87 -36z"/> <path d="M6082 4255 c-58 -19 -98 -49 -129 -99 -22 -34 -27 -53 -27 -116 -1 -62 3 -82 22 -112 42 -67 130 -118 203 -118 75 1 169 65 201 139 55 127 -12 266 -148 306 -60 17 -65 17 -122 0z m125 -96 c26 -10 69 -65 78 -100 7 -30 -16 -94 -44 -120 -56 -53 -157 -45 -202 14 -19 25 -24 44 -24 89 1 49 5 62 29 86 44 47 94 56 163 31z"/> <path d="M6859 4196 c-49 -15 -102 -58 -130 -103 -20 -31 -24 -51 -23 -113 0 -63 5 -82 27 -117 54 -85 160 -122 266 -93 60 16 123 82 145 154 16 52 16 58 0 116 -14 49 -26 69 -64 103 -70 63 -139 79 -221 53z m125 -91 c66 -28 99 -109 69 -172 -22 -47 -47 -68 -98 -83 -48 -13 -95 2 -135 45 -35 37 -35 127 -2 170 42 53 101 67 166 40z"/> </g> </svg> 